<svg id="Group_17967" data-name="Group 17967" xmlns="http://www.w3.org/2000/svg" width="28.617" height="28.623" viewBox="0 0 28.617 28.623">
  <g id="super_g" data-name="super g">
    <path id="Shape" d="M18.315,7.664l4.038-3.949A13.747,13.747,0,0,0,12.783,0,14.3,14.3,0,0,0,0,7.887l4.627,3.592a8.648,8.648,0,0,1,8.156-5.946h0A7.93,7.93,0,0,1,18.315,7.664Z" transform="translate(1.526)" fill="#ea4335"/>
    <path id="Shape-2" data-name="Shape" d="M13.433,0H0V5.311H7.886A6.993,6.993,0,0,1,4.96,9.953l4.515,3.5a13.989,13.989,0,0,0,3.249-4.81A13.989,13.989,0,0,0,13.74,2.925h0A12.257,12.257,0,0,0,13.433,0Z" transform="translate(14.309 11.703)" fill="#4285f4"/>
    <path id="Shape-3" data-name="Shape" d="M5.692,6.422a9.256,9.256,0,0,1,.461-2.83L1.526,0a14.278,14.278,0,0,0,0,12.846L6.17,9.252A8.805,8.805,0,0,1,5.692,6.422Z" transform="translate(0 7.887)" fill="#fbbc05"/>
    <path id="Shape-4" data-name="Shape" d="M22.241,8.013l-4.515-3.5a8.468,8.468,0,0,1-4.96,1.431,8.614,8.614,0,0,1-5.03-1.658A8.614,8.614,0,0,1,4.627,0L0,3.594A14.274,14.274,0,0,0,5.263,9.349a14.274,14.274,0,0,0,7.5,2.13A13.637,13.637,0,0,0,22.241,8.013Z" transform="translate(1.543 17.139)" fill="#34a853"/>
    <path id="Shape-5" data-name="Shape" d="M28.617,0V28.617H0V0Z" transform="translate(0 0.002)" fill="none"/>
  </g>
</svg>
